<svg xmlns="http://www.w3.org/2000/svg" viewBox="0 0 1808.26 1808.26"><defs><style>.cls-1{fill:#fff;}.cls-1,.cls-2{stroke:#000;stroke-miterlimit:10;stroke-width:30px;}.cls-2{fill:#343248;}</style></defs><title>Element 7</title><g id="Ebene_2" data-name="Ebene 2"><g id="Ebene_1-2" data-name="Ebene 1"><path class="cls-1" d="M1793.26,904.13c0,491.05-398.08,889.13-889.13,889.13-310.78,0-584.32-159.45-743.28-401C68.65,1252.14,15,1084.4,15,904.13A892.69,892.69,0,0,1,35.25,714.58C122.1,314.6,478.13,15,904.13,15,1395.18,15,1793.26,413.08,1793.26,904.13Z"/><circle class="cls-1" cx="904.13" cy="904.13" r="889.13"/><path class="cls-2" d="M1475.25,809,1230.44,617.1a41.44,41.44,0,0,1-9.1-55.33l91-139a41.47,41.47,0,0,1,25.43-17.69l190.84-43.64c31.21-7.14,43-45.55,21-68.78a894.67,894.67,0,0,0-103.23-93.21,41.44,41.44,0,0,0-18.87-8.13l-335-53.05a41.69,41.69,0,0,0-10.76-.29l-253.26,26.3a41.35,41.35,0,0,1-17.08-1.8L579,87.05a41.58,41.58,0,0,0-29.42,1.45,886.71,886.71,0,0,0-116.29,61.26,41.47,41.47,0,0,0-7.54,64.36L597.13,387a41.43,41.43,0,0,0,15.91,10l275.58,95.16a41.44,41.44,0,0,1,27.87,41L905.31,781.7a41.43,41.43,0,0,1-25.42,36.37l-81.32,34a41.47,41.47,0,0,1-43-6.84L612,721.58a41.43,41.43,0,0,0-18.62-9.18L103.32,610.48a41.44,41.44,0,0,0-48,28.19Q50.46,654.22,46.16,670a41.47,41.47,0,0,0,33.22,51.85l212,35a41.45,41.45,0,0,1,28.4,18.94l63.74,102.11a41.45,41.45,0,0,1-4.08,49.36l-80.21,90.92a41.44,41.44,0,0,0-10.37,27.42v212a41.42,41.42,0,0,1-13.58,30.68l-87.64,79.58a41.4,41.4,0,0,0-5.85,54.8c161.39,224.42,424.78,370.56,722.31,370.56q14.43,0,28.76-.46c28.22-.9,47.18-29.32,37.38-55.8L891,1522.78a41.42,41.42,0,0,0-30.83-26.27L648.52,1454.7a41.41,41.41,0,0,1-15.77-6.73l-156.3-109.64a41.43,41.43,0,0,1-7.54-61l61.94-71.63a41.43,41.43,0,0,1,9.32-8L664,1120a41.44,41.44,0,0,1,46.72,1.82l62.69,46.51a41.36,41.36,0,0,0,16.84,7.41l139.95,27a41.44,41.44,0,0,0,37.38-11.61l162.72-165.27a41.45,41.45,0,0,1,33.2-12.2l177,15.73a41.44,41.44,0,0,1,37.68,44.1L1365,1266.36a41.31,41.31,0,0,0,3,18.55L1464.43,1520a41.44,41.44,0,0,0,5.75,9.86h0a41.46,41.46,0,0,0,61.9,3.72,889.61,889.61,0,0,0,207.31-324,41.39,41.39,0,0,0-20.46-51.17l-93-46.47a41.45,41.45,0,0,1-19.34-20.2l-119-267A41.46,41.46,0,0,0,1475.25,809Z"/></g></g></svg>